<svg width="277" height="277" viewBox="0 0 277 277" fill="none" xmlns="http://www.w3.org/2000/svg">
<mask id="mask0_3_3" style="mask-type:luminance" maskUnits="userSpaceOnUse" x="0" y="0" width="277" height="277">
<path d="M0 0H277V277H0V0Z" fill="white"/>
</mask>
<g mask="url(#mask0_3_3)">
<path d="M193.398 154.056C193.398 160.327 188.508 165.443 182.341 165.816H96.0139C89.8731 165.408 85.0177 160.301 85.0177 154.056V100.865C85.0177 94.3591 90.2986 89.0783 96.8043 89.0783H181.611C188.117 89.0783 193.398 94.3591 193.398 100.865V154.056ZM165.013 70.7341H111.987C93.2171 70.7341 77.9997 85.9515 77.9997 104.721V148.219C77.9997 161.891 86.0687 173.677 97.7075 179.062L113.811 210.791L113.889 210.947C114.81 212.98 116.859 214.387 119.239 214.387H159.116C161.608 214.387 163.736 212.841 164.596 210.661L164.605 210.652L181.229 178.098C191.817 172.34 199 161.126 199 148.219V104.721C199 85.9515 183.783 70.7341 165.013 70.7341Z" fill="currentColor"/>
<path d="M34.2584 125.886C34.2584 124.921 34.797 124.087 35.5787 123.662L35.5874 123.653L43.0656 117.764L43.0832 117.747L43.9342 117.078L43.9518 117.069C44.2731 116.913 44.6464 116.826 45.0287 116.826C46.4272 116.826 47.5563 117.956 47.5563 119.354V177.774C47.5563 179.172 46.4272 180.301 45.0287 180.301C44.3337 180.301 43.691 180.015 43.2395 179.555L35.3702 173.978L35.3529 173.97C34.6925 173.518 34.2584 172.754 34.2584 171.885V125.886ZM23.7313 122.715V174.413C23.7313 176.497 24.8171 178.33 26.4499 179.372L54.253 199.497C54.253 199.497 55.9033 200.8 59.0821 202.016C62.0874 203.171 64.8842 200.27 64.971 196.726V102.095C64.971 98.8382 62.3306 96.2065 59.0821 96.2065C58.1615 96.2065 57.2929 96.415 56.5112 96.8057L56.5025 96.8143C55.9033 97.0837 55.3734 97.466 54.913 97.9261L27.3707 117.269L27.3621 117.278C25.234 118.155 23.7313 120.257 23.7313 122.715Z" fill="currentColor"/>
<path d="M242.742 171.794C242.742 172.663 242.307 173.427 241.647 173.878L241.63 173.887L233.76 179.463C233.309 179.924 232.666 180.21 231.971 180.21C230.573 180.21 229.444 179.081 229.444 177.683V119.263C229.444 117.864 230.573 116.735 231.971 116.735C232.354 116.735 232.727 116.822 233.048 116.978L233.066 116.987L233.917 117.656L233.934 117.673L241.413 123.562L241.421 123.571C242.203 123.997 242.742 124.83 242.742 125.794V171.794ZM249.638 117.187L249.629 117.178L222.087 97.8349C221.627 97.3748 221.097 96.9925 220.497 96.7231L220.489 96.7147C219.707 96.3239 218.838 96.1153 217.918 96.1153C214.669 96.1153 212.029 98.7471 212.029 102.004V196.635C212.116 200.179 214.913 203.08 217.918 201.925C221.097 200.709 222.747 199.406 222.747 199.406L250.55 179.281C252.183 178.239 253.269 176.406 253.269 174.322V122.624C253.269 120.166 251.766 118.064 249.638 117.187Z" fill="currentColor"/>
<path d="M121.513 132.475C121.513 138.986 116.234 144.264 109.724 144.264C103.213 144.264 97.9341 138.986 97.9341 132.475C97.9341 125.964 103.213 120.686 109.724 120.686C116.234 120.686 121.513 125.964 121.513 132.475Z" fill="currentColor"/>
<path d="M180.311 132.475C180.311 138.986 175.033 144.264 168.522 144.264C162.011 144.264 156.733 138.986 156.733 132.475C156.733 125.964 162.011 120.686 168.522 120.686C175.033 120.686 180.311 125.964 180.311 132.475Z" fill="currentColor"/>
</g>
</svg>
